<?xml version="1.0" encoding="UTF-8" standalone="no"?>
<svg
   xmlns:dc="http://purl.org/dc/elements/1.1/"
   xmlns:cc="http://creativecommons.org/ns#"
   xmlns:rdf="http://www.w3.org/1999/02/22-rdf-syntax-ns#"
   xmlns:svg="http://www.w3.org/2000/svg"
   xmlns="http://www.w3.org/2000/svg"
   xmlns:sodipodi="http://sodipodi.sourceforge.net/DTD/sodipodi-0.dtd"
   xmlns:inkscape="http://www.inkscape.org/namespaces/inkscape"
   width="210mm"
   height="297mm"
   viewBox="0 0 210 297"
   version="1.1"
   id="svg8"
   inkscape:version="1.0.1 (c497b03c, 2020-09-10)"
   sodipodi:docname="logo.svg">
  <defs
     id="defs2" />
  <sodipodi:namedview
     id="base"
     pagecolor="#ffffff"
     bordercolor="#666666"
     borderopacity="1.0"
     inkscape:pageopacity="0.0"
     inkscape:pageshadow="2"
     inkscape:zoom="0.84389516"
     inkscape:cx="161.42632"
     inkscape:cy="415.92901"
     inkscape:document-units="mm"
     inkscape:current-layer="layer1"
     inkscape:document-rotation="0"
     showgrid="false"
     inkscape:window-width="1252"
     inkscape:window-height="803"
     inkscape:window-x="239"
     inkscape:window-y="23"
     inkscape:window-maximized="0"
     inkscape:lockguides="true" />
  <metadata
     id="metadata5">
    <rdf:RDF>
      <cc:Work
         rdf:about="">
        <dc:format>image/svg+xml</dc:format>
        <dc:type
           rdf:resource="http://purl.org/dc/dcmitype/StillImage" />
        <dc:title></dc:title>
      </cc:Work>
    </rdf:RDF>
  </metadata>
  <g
     inkscape:label="Layer 1"
     inkscape:groupmode="layer"
     id="layer1">
    <path
       style="fill:#8057ee;fill-opacity:1;stroke:none;stroke-width:0.264583px;stroke-linecap:butt;stroke-linejoin:miter;stroke-opacity:1"
       d="m 28.659176,84.077918 c 0,0 -0.390773,-16.973841 2.660359,-23.41836 3.445606,-7.277714 8.724813,-13.129909 19.822825,-13.798981 11.098012,-0.669071 21.574116,20.978576 21.574116,20.978576 -0.382174,-0.955436 9.884669,-18.473385 23.423766,-20.718842 8.451218,-1.401633 16.959058,3.884154 22.926568,11.183186 5.96751,7.299032 3.85075,24.993855 -0.32657,33.245253 -4.17732,8.251398 -8.56092,12.83484 -16.7229,17.36077 0,0 -4.857542,3.07223 -8.880839,0.0951 L 80.708708,99.80839 C 80.604909,91.601689 80.384026,78.458295 80.384026,78.458295 H 65.308659 L 64.995133,86.465477 44.567536,67.184413 Z"
       id="path10"
       sodipodi:nodetypes="cszcszzsscccccc" />
    <path
       style="fill:#808be4;fill-opacity:1;stroke:none;stroke-width:0.258698px;stroke-linecap:butt;stroke-linejoin:miter;stroke-opacity:1"
       d="m 35.809395,84.500128 7.98902,-9.88086 46.021482,39.257392 c 7.426106,6.33465 -14.722699,32.49221 -12.353467,24.30946 1.184615,-4.09139 -8.32117,-14.75435 -21.216576,-20.50394 C 43.862945,112.15931 26.890688,95.530828 35.809395,84.500128 Z"
       id="path48"
       sodipodi:nodetypes="scssss" />
  </g>
</svg>
